name C:\Users\antoi\Documents\MyRepositories\upper-imu-dc\Results\main_tracking\Case_79\ABD01_linearAccelerations_bodyFrame.mot
datacolumns 4
datarows 105
range 4.63000000 5.67000000
endheader 
time	radius_imu_x	radius_imu_y	radius_imu_z	
          4.63000000	         -1.99775109	          0.43348844	          9.34324632	
          4.64000000	         -1.98124581	          0.34839090	          9.34093654	
          4.65000000	         -1.96960604	          0.26357889	          9.33760901	
          4.66000000	         -1.96193444	          0.17908449	          9.33319418	
          4.67000000	         -1.95689911	          0.09496768	          9.32794294	
          4.68000000	         -1.95284417	          0.01131975	          9.32242069	
          4.69000000	         -1.94804864	         -0.07175963	          9.31731046	
          4.70000000	         -1.94094318	         -0.15418701	          9.31325611	
          4.71000000	         -1.93015681	         -0.23590409	          9.31079242	
          4.72000000	         -1.91448349	         -0.31687683	          9.31032870	
          4.73000000	         -1.89290831	         -0.39709445	          9.31210003	
          4.74000000	         -1.86471120	         -0.47655894	          9.31616293	
          4.75000000	         -1.82980385	         -0.55531093	          9.32217905	
          4.76000000	         -1.78877895	         -0.63342026	          9.32947524	
          4.77000000	         -1.74249122	         -0.71093986	          9.33738260	
          4.78000000	         -1.69223489	         -0.78791005	          9.34525198	
          4.79000000	         -1.63975966	         -0.86437652	          9.35247755	
          4.80000000	         -1.58707055	         -0.94037150	          9.35868965	
          4.81000000	         -1.53625598	         -1.01591752	          9.36375632	
          4.82000000	         -1.48922579	         -1.09101757	          9.36783195	
          4.83000000	         -1.44760289	         -1.16568055	          9.37118855	
          4.84000000	         -1.41231429	         -1.23987759	          9.37447118	
          4.85000000	         -1.38407023	         -1.31362618	          9.37812619	
          4.86000000	         -1.36328074	         -1.38696982	          9.38242508	
          4.87000000	         -1.34948299	         -1.45987954	          9.38811359	
          4.88000000	         -1.34179771	         -1.53233611	          9.39556460	
          4.89000000	         -1.33930397	         -1.60433148	          9.40474848	
          4.90000000	         -1.34105936	         -1.67587925	          9.41505629	
          4.91000000	         -1.34651592	         -1.74705567	          9.42510961	
          4.92000000	         -1.35540287	         -1.81786738	          9.43383106	
          4.93000000	         -1.36641170	         -1.88843907	          9.43870993	
          4.94000000	         -1.37876613	         -1.95891664	          9.43750590	
          4.95000000	         -1.39122150	         -2.02935019	          9.42927531	
          4.96000000	         -1.40182181	         -2.09975853	          9.41378061	
          4.97000000	         -1.41074655	         -2.17042314	          9.38936455	
          4.98000000	         -1.41648497	         -2.24119344	          9.35728686	
          4.99000000	         -1.41857683	         -2.31210468	          9.31895122	
          5.00000000	         -1.41698505	         -2.38324489	          9.27477959	
          5.01000000	         -1.41184332	         -2.45445954	          9.22749737	
          5.02000000	         -1.40382954	         -2.52565905	          9.17896067	
          5.03000000	         -1.39383522	         -2.59675539	          9.13082222	
          5.04000000	         -1.38386103	         -2.66789534	          9.08260945	
          5.05000000	         -1.37352014	         -2.73872111	          9.03769512	
          5.06000000	         -1.36405987	         -2.80928269	          8.99555162	
          5.07000000	         -1.35611643	         -2.87959037	          8.95594949	
          5.08000000	         -1.34965470	         -2.94959553	          8.91867876	
          5.09000000	         -1.34428342	         -3.01923173	          8.88338271	
          5.10000000	         -1.33936139	         -3.08839430	          8.84972924	
          5.11000000	         -1.33483158	         -3.15709586	          8.81662645	
          5.12000000	         -1.32913412	         -3.22508734	          8.78447091	
          5.13000000	         -1.32144275	         -3.29220791	          8.75321413	
          5.14000000	         -1.31105892	         -3.35833476	          8.72273621	
          5.15000000	         -1.29739515	         -3.42331882	          8.69301493	
          5.16000000	         -1.27992133	         -3.48706106	          8.66397254	
          5.17000000	         -1.25822605	         -3.54946650	          8.63565116	
          5.18000000	         -1.23239476	         -3.61046124	          8.60814454	
          5.19000000	         -1.20315515	         -3.67001823	          8.58147407	
          5.20000000	         -1.17169250	         -3.72814786	          8.55573124	
          5.21000000	         -1.13974236	         -3.78490021	          8.53117502	
          5.22000000	         -1.10831075	         -3.84030003	          8.50842696	
          5.23000000	         -1.07986773	         -3.89446940	          8.48788226	
          5.24000000	         -1.05569191	         -3.94756127	          8.46973816	
          5.25000000	         -1.03397113	         -3.99925431	          8.45864913	
          5.26000000	         -1.01622662	         -4.05007427	          8.45194318	
          5.27000000	         -1.00196302	         -4.10022095	          8.44964088	
          5.28000000	         -0.98971042	         -4.14973544	          8.45234133	
          5.29000000	         -0.97845752	         -4.19852881	          8.46012137	
          5.30000000	         -0.96751191	         -4.24646907	          8.47249966	
          5.31000000	         -0.95497903	         -4.29358210	          8.48840242	
          5.32000000	         -0.93935131	         -4.34066604	          8.50729234	
          5.33000000	         -0.91825051	         -4.38869678	          8.52801702	
          5.34000000	         -0.89813133	         -4.43237328	          8.54856615	
          5.35000000	         -0.86879678	         -4.48140238	          8.56554725	
          5.36000000	         -0.83688455	         -4.52813318	          8.57909624	
          5.37000000	         -0.80090055	         -4.57467583	          8.58753231	
          5.38000000	         -0.76157502	         -4.62094294	          8.58793797	
          5.39000000	         -0.71837441	         -4.66748374	          8.57978606	
          5.40000000	         -0.67175631	         -4.71442060	          8.56311654	
          5.41000000	         -0.62327442	         -4.76155615	          8.53801838	
          5.42000000	         -0.57263540	         -4.80859890	          8.50582984	
          5.43000000	         -0.52116213	         -4.85545886	          8.46851819	
          5.44000000	         -0.46854825	         -4.90208404	          8.42856167	
          5.45000000	         -0.41472378	         -4.94845811	          8.38808308	
          5.46000000	         -0.35997102	         -4.99455057	          8.34880612	
          5.47000000	         -0.30464020	         -5.04031785	          8.31187848	
          5.48000000	         -0.24938287	         -5.08571765	          8.27805072	
          5.49000000	         -0.19471567	         -5.13072824	          8.24751337	
          5.50000000	         -0.14153029	         -5.17528094	          8.22047237	
          5.51000000	         -0.09260278	         -5.21935115	          8.19615972	
          5.52000000	         -0.04709763	         -5.26321144	          8.17471004	
          5.53000000	         -0.00754608	         -5.30662549	          8.15599461	
          5.54000000	          0.02721214	         -5.34957568	          8.14081957	
          5.55000000	          0.05378769	         -5.39230637	          8.12872840	
          5.56000000	          0.07363146	         -5.43471320	          8.12038499	
          5.57000000	          0.08772221	         -5.47681259	          8.11545554	
          5.58000000	          0.09631139	         -5.51867197	          8.11319286	
          5.59000000	          0.09793684	         -5.56053370	          8.11138170	
          5.60000000	          0.09414996	         -5.60249392	          8.10828491	
          5.61000000	          0.08498635	         -5.64477306	          8.10124380	
          5.62000000	          0.07074078	         -5.68759468	          8.08771448	
          5.63000000	          0.05213338	         -5.73118968	          8.06553201	
          5.64000000	          0.02982259	         -5.77580593	          8.03318104	
          5.65000000	          0.00457316	         -5.82167273	          7.99006147	
          5.66000000	         -0.02317503	         -5.86899780	          7.93630380	
          5.67000000	         -0.05147181	         -5.91780457	          7.87337636	
